<?xml version="1.0" standalone="no"?>
<!DOCTYPE svg PUBLIC "-//W3C//DTD SVG 20010904//EN"
 "http://www.w3.org/TR/2001/REC-SVG-20010904/DTD/svg10.dtd">
<svg version="1.0" xmlns="http://www.w3.org/2000/svg"
 width="1024.000000pt" height="1024.000000pt" viewBox="0 0 1024.000000 1024.000000"
 preserveAspectRatio="xMidYMid meet">

<g transform="translate(0.000000,1024.000000) scale(0.100000,-0.100000)"
fill="#000000" stroke="none">
<path d="M0 6494 l0 -3746 28 6 c149 31 182 30 322 -10 46 -13 100 -24 120
-24 49 0 164 36 350 108 223 87 320 105 535 99 141 -4 207 -12 393 -46 123
-22 287 -45 366 -51 78 -5 187 -19 242 -30 110 -23 330 -60 355 -60 10 0 44
45 87 118 109 181 434 962 508 1222 14 52 33 107 40 121 16 32 240 246 439
420 156 136 457 378 795 639 422 326 628 503 1155 995 311 290 519 470 810
701 489 388 698 572 768 677 52 78 69 90 136 95 86 6 580 -16 624 -29 51 -14
100 -59 138 -127 20 -37 76 -101 159 -182 156 -152 147 -124 164 -515 10 -236
15 -285 29 -305 22 -31 22 -78 -1 -112 -9 -14 -100 -100 -202 -189 -214 -188
-385 -343 -810 -734 -616 -566 -903 -822 -1230 -1096 -362 -304 -562 -457
-962 -737 -356 -249 -457 -325 -626 -469 -150 -129 -378 -289 -425 -298 -18
-4 -93 -35 -167 -70 -143 -67 -211 -88 -432 -136 -77 -16 -194 -45 -261 -64
-67 -19 -176 -46 -242 -59 -66 -14 -133 -30 -150 -36 -53 -20 -229 -60 -265
-60 -20 0 -41 5 -46 10 -6 6 -49 15 -96 20 -48 6 -158 24 -245 40 -87 17 -232
37 -323 45 -91 8 -252 30 -358 49 -263 48 -387 60 -504 47 -123 -14 -181 -30
-361 -100 -314 -122 -369 -130 -547 -81 l-118 33 -96 -18 -96 -17 0 -1269 0
-1269 5120 0 5120 0 0 5120 0 5120 -5120 0 -5120 0 0 -3746z"/>
<path d="M7350 7370 c-162 -164 -253 -242 -680 -580 -283 -224 -484 -399 -895
-781 -472 -438 -635 -578 -1030 -884 -566 -438 -786 -619 -1017 -836 l-127
-120 57 -57 c31 -31 66 -77 76 -102 11 -25 21 -47 22 -48 4 -6 457 363 759
617 506 426 944 811 1885 1656 612 549 1131 1012 1307 1165 l121 105 -57 6
c-31 4 -105 7 -166 7 l-110 0 -145 -148z"/>
<path d="M7859 7258 c-282 -248 -668 -592 -1304 -1163 -1216 -1092 -1900
-1684 -2438 -2113 -92 -74 -167 -136 -167 -139 0 -3 31 -38 68 -77 37 -39 74
-86 81 -104 7 -18 16 -32 20 -32 22 0 737 579 1191 964 430 366 647 556 1645
1446 484 432 977 870 1096 974 l216 188 -91 83 c-50 45 -97 94 -105 109 -8 14
-17 26 -21 26 -3 0 -89 -73 -191 -162z"/>
<path d="M8080 6763 c-129 -114 -586 -520 -1015 -903 -1356 -1210 -1958 -1725
-2638 -2258 -86 -68 -157 -126 -157 -129 0 -2 13 -15 29 -29 44 -37 71 -85 84
-154 l13 -60 44 32 c25 18 95 76 157 129 143 125 288 233 601 452 709 496
1054 784 2187 1822 488 448 666 609 825 750 100 89 134 125 132 140 -1 11 -5
109 -9 218 -3 108 -8 197 -12 197 -3 0 -112 -94 -241 -207z"/>
<path d="M3464 3897 c-37 -114 -134 -363 -211 -545 -36 -85 -63 -155 -61 -157
1 -1 21 -12 44 -23 66 -34 135 -118 171 -208 18 -47 36 -79 44 -78 45 4 444
100 495 119 110 41 141 62 154 99 6 18 20 42 31 52 26 24 49 67 49 93 0 11
-12 29 -27 41 -24 19 -35 20 -107 14 -97 -8 -145 8 -176 58 -27 43 -21 88 20
144 16 23 30 47 30 52 0 15 -89 110 -109 117 -10 3 -35 -2 -57 -11 l-39 -16
19 21 c19 21 19 21 -17 21 -23 0 -46 9 -65 25 -17 14 -42 25 -56 25 -25 0 -26
2 -26 63 0 44 -7 77 -24 113 -37 80 -50 77 -82 -19z"/>
</g>
</svg>
